<svg width="17" height="16" viewBox="0 0 17 16" fill="none" xmlns="http://www.w3.org/2000/svg">
<path d="M3.16671 3.33333V12.6667H13.8334V3.33333H3.16671ZM2.50004 2H14.5C14.6769 2 14.8464 2.07024 14.9714 2.19526C15.0965 2.32029 15.1667 2.48986 15.1667 2.66667V13.3333C15.1667 13.5101 15.0965 13.6797 14.9714 13.8047C14.8464 13.9298 14.6769 14 14.5 14H2.50004C2.32323 14 2.15366 13.9298 2.02864 13.8047C1.90361 13.6797 1.83337 13.5101 1.83337 13.3333V2.66667C1.83337 2.48986 1.90361 2.32029 2.02864 2.19526C2.15366 2.07024 2.32323 2 2.50004 2ZM10.362 6.52867L9.16671 5.33333H12.5V8.66667L11.3047 7.47133L8.72871 10.0473L7.31471 8.63333L5.42871 10.5187L4.48604 9.576L7.31471 6.74733L8.72871 8.162L10.362 6.52867Z" fill="white"/>
</svg>
