<svg width="17" height="16" viewBox="0 0 17 16" fill="none" xmlns="http://www.w3.org/2000/svg">
<path d="M13.8334 7.33333H13.1667V4.66667H13.8334V2.66667H15.1667V4.66667H15.8334V7.33333H15.1667V12C15.1667 12.5304 14.956 13.0391 14.5809 13.4142C14.2058 13.7893 13.6971 14 13.1667 14C12.6363 14 12.1276 13.7893 11.7525 13.4142C11.3774 13.0391 11.1667 12.5304 11.1667 12V9.33333H9.83337V12.6667H10.5V14H1.83337V12.6667H2.50004V2.66667C2.50004 2.48986 2.57028 2.32029 2.6953 2.19526C2.82033 2.07024 2.9899 2 3.16671 2H9.16671C9.34352 2 9.51309 2.07024 9.63811 2.19526C9.76314 2.32029 9.83337 2.48986 9.83337 2.66667V8H11.1667C11.5203 8 11.8595 8.14048 12.1095 8.39052C12.3596 8.64057 12.5 8.97971 12.5 9.33333V12C12.5 12.1768 12.5703 12.3464 12.6953 12.4714C12.8203 12.5964 12.9899 12.6667 13.1667 12.6667C13.3435 12.6667 13.5131 12.5964 13.6381 12.4714C13.7631 12.3464 13.8334 12.1768 13.8334 12V7.33333ZM8.50004 12.6667V3.33333H3.83337V12.6667H8.50004ZM6.50004 7.33333H8.50004L5.83337 11.3333V8.66667H3.83337L6.50004 4.66667V7.33333Z" fill="white"/>
</svg>
