<svg width="14" height="14" viewBox="0 0 14 14" fill="none" xmlns="http://www.w3.org/2000/svg">
<path d="M7.00002 1.16667C10.2218 1.16667 12.8334 3.77825 12.8334 7C12.8334 10.2218 10.2218 12.8333 7.00002 12.8333C3.77827 12.8333 1.16669 10.2218 1.16669 7C1.16669 3.77825 3.77827 1.16667 7.00002 1.16667ZM7.00002 2.33333C5.76234 2.33333 4.57536 2.825 3.70019 3.70017C2.82502 4.57534 2.33335 5.76232 2.33335 7C2.33335 8.23768 2.82502 9.42466 3.70019 10.2998C4.57536 11.175 5.76234 11.6667 7.00002 11.6667C8.2377 11.6667 9.42468 11.175 10.2999 10.2998C11.175 9.42466 11.6667 8.23768 11.6667 7C11.6667 5.76232 11.175 4.57534 10.2999 3.70017C9.42468 2.825 8.2377 2.33333 7.00002 2.33333ZM9.23594 4.27992C9.30285 4.23298 9.38418 4.21117 9.4656 4.21832C9.54702 4.22547 9.62331 4.26112 9.68102 4.319C9.73862 4.3766 9.77392 4.45276 9.78065 4.53393C9.78738 4.61511 9.7651 4.69604 9.71777 4.76233C8.4461 6.53917 7.7461 7.49117 7.61894 7.61892C7.45468 7.78285 7.23209 7.87492 7.00002 7.87492C6.76795 7.87492 6.54537 7.78285 6.3811 7.61892C6.21717 7.45466 6.12511 7.23207 6.12511 7C6.12511 6.76793 6.21717 6.54535 6.3811 6.38108C6.59927 6.1635 7.55069 5.46292 9.23594 4.27992ZM10.2084 6.41667C10.3631 6.41667 10.5114 6.47813 10.6208 6.58752C10.7302 6.69692 10.7917 6.84529 10.7917 7C10.7917 7.15471 10.7302 7.30308 10.6208 7.41248C10.5114 7.52188 10.3631 7.58333 10.2084 7.58333C10.0536 7.58333 9.90527 7.52188 9.79587 7.41248C9.68648 7.30308 9.62502 7.15471 9.62502 7C9.62502 6.84529 9.68648 6.69692 9.79587 6.58752C9.90527 6.47813 10.0536 6.41667 10.2084 6.41667ZM3.79169 6.41667C3.9464 6.41667 4.09477 6.47813 4.20417 6.58752C4.31356 6.69692 4.37502 6.84529 4.37502 7C4.37502 7.15471 4.31356 7.30308 4.20417 7.41248C4.09477 7.52188 3.9464 7.58333 3.79169 7.58333C3.63698 7.58333 3.4886 7.52188 3.37921 7.41248C3.26981 7.30308 3.20835 7.15471 3.20835 7C3.20835 6.84529 3.26981 6.69692 3.37921 6.58752C3.4886 6.47813 3.63698 6.41667 3.79169 6.41667ZM5.14385 4.319C5.25323 4.42854 5.31462 4.57703 5.31451 4.73183C5.3144 4.88663 5.25281 5.03504 5.14327 5.14442C5.03374 5.2538 4.88524 5.31519 4.73044 5.31508C4.57565 5.31497 4.42723 5.25337 4.31785 5.14383C4.26369 5.0896 4.22075 5.02523 4.19147 4.95439C4.16219 4.88356 4.14714 4.80765 4.1472 4.73101C4.14725 4.65436 4.1624 4.57847 4.19178 4.50768C4.22116 4.43689 4.2642 4.37258 4.31844 4.31842C4.42797 4.20904 4.57647 4.14765 4.73127 4.14776C4.80791 4.14781 4.8838 4.16297 4.95459 4.19235C5.02538 4.22173 5.08969 4.26477 5.14385 4.319ZM7.00002 3.20833C7.15473 3.20833 7.3031 3.26979 7.4125 3.37919C7.5219 3.48859 7.58335 3.63696 7.58335 3.79167C7.58335 3.94638 7.5219 4.09475 7.4125 4.20415C7.3031 4.31354 7.15473 4.375 7.00002 4.375C6.84531 4.375 6.69694 4.31354 6.58754 4.20415C6.47815 4.09475 6.41669 3.94638 6.41669 3.79167C6.41669 3.63696 6.47815 3.48859 6.58754 3.37919C6.69694 3.26979 6.84531 3.20833 7.00002 3.20833Z" fill="white"/>
</svg>
