<svg width="20" height="20" viewBox="0 0 20 20" fill="none" xmlns="http://www.w3.org/2000/svg">
<path d="M18.4592 12.0008C18.114 13.6864 17.2561 15.224 16.0029 16.4028C14.7497 17.5817 13.1626 18.3442 11.4592 18.5858V16.8983C12.7173 16.674 13.8846 16.0931 14.8224 15.2248C15.7601 14.3565 16.4289 13.2372 16.7492 12L18.4592 12.0008ZM3.83583 12.0008C4.15268 13.2238 4.81006 14.3317 5.73158 15.1958C6.6531 16.0599 7.80092 16.6448 9.04167 16.8825V18.5742C7.35493 18.3172 5.78756 17.5491 4.55093 16.3736C3.31431 15.198 2.46789 13.6716 2.12583 12H3.83583V12.0008ZM15.2925 9.5V11.1667H14.4592C13.604 11.1667 12.7815 11.4954 12.1618 12.0848C11.5422 12.6742 11.1728 13.4792 11.13 14.3333L11.1258 14.5V15.3333H9.45917V14.5C9.45917 13.6448 9.13047 12.8223 8.54106 12.2027C7.95166 11.583 7.14663 11.2136 6.2925 11.1708L6.12583 11.1667H5.2925V9.5H15.2925ZM10.2925 2C14.6133 2 18.1667 5.28917 18.5842 9.5H16.9075C16.7041 7.88908 15.9199 6.40773 14.702 5.3339C13.4841 4.26007 11.9162 3.66756 10.2925 3.66756C8.66879 3.66756 7.10089 4.26007 5.88298 5.3339C4.66507 6.40773 3.88086 7.88908 3.6775 9.5H2C2.41833 5.28917 5.97167 2 10.2925 2Z" fill="white"/>
</svg>
