<svg width="14" height="14" viewBox="0 0 14 14" fill="none" xmlns="http://www.w3.org/2000/svg">
<path d="M4.66669 2.91667C4.66669 2.29783 4.91252 1.70433 5.3501 1.26675C5.78769 0.829165 6.38118 0.583332 7.00002 0.583332C7.61886 0.583332 8.21235 0.829165 8.64994 1.26675C9.08752 1.70433 9.33335 2.29783 9.33335 2.91667V5.98208C10.0468 6.47883 10.583 7.1903 10.8641 8.01294C11.1451 8.83557 11.1563 9.72643 10.896 10.5559C10.6356 11.3853 10.1174 12.11 9.41669 12.6245C8.71597 13.139 7.86934 13.4164 7.00002 13.4164C6.1307 13.4164 5.28407 13.139 4.58335 12.6245C3.88263 12.11 3.36439 11.3853 3.10407 10.5559C2.84375 9.72643 2.85493 8.83557 3.13598 8.01294C3.41703 7.1903 3.95328 6.47883 4.66669 5.98208V2.91667ZM5.33402 6.93875C4.82429 7.29347 4.44108 7.80163 4.24019 8.38925C4.03929 8.97687 4.03119 9.61327 4.21708 10.2058C4.40296 10.7983 4.77312 11.3161 5.27366 11.6837C5.77421 12.0512 6.37901 12.2494 7.00002 12.2494C7.62103 12.2494 8.22583 12.0512 8.72638 11.6837C9.22692 11.3161 9.59708 10.7983 9.78296 10.2058C9.96885 9.61327 9.96075 8.97687 9.75986 8.38925C9.55896 7.80163 9.17575 7.29347 8.66602 6.93875L8.16669 6.5905V2.91667C8.16669 2.60725 8.04377 2.3105 7.82498 2.09171C7.60619 1.87291 7.30944 1.75 7.00002 1.75C6.6906 1.75 6.39386 1.87291 6.17506 2.09171C5.95627 2.3105 5.83335 2.60725 5.83335 2.91667V6.5905L5.33402 6.93875ZM4.66669 9.33333H9.33335C9.33335 9.95217 9.08752 10.5457 8.64994 10.9832C8.21235 11.4208 7.61886 11.6667 7.00002 11.6667C6.38118 11.6667 5.78769 11.4208 5.3501 10.9832C4.91252 10.5457 4.66669 9.95217 4.66669 9.33333Z" fill="white"/>
</svg>
