<svg width="438" height="304" viewBox="0 0 438 304" fill="none" xmlns="http://www.w3.org/2000/svg">
<path d="M142.119 60.1929L179.422 49.797M192.264 54.6892L199.602 68.7542M239.351 49.797L199.602 68.7542M275.43 33.286L265.035 17.3865L307.229 1.48694L335.971 28.3938L254.639 68.7542M213.667 137.244L224.674 120.733L217.336 103.611L305.562 77.6212M219.782 69.9772L217.336 69.829M199.602 68.7542L217.336 69.829M156.184 88.3228L185.537 77.6212L217.336 81.5961L217.336 69.829M185.537 126.849L164.745 170.878L184.314 178.828L206.329 139.079M213.667 146.417L199.602 170.878M293.165 96.8841L315.791 109.726M293.165 96.8841L317.959 58.3583M293.165 96.8841L272.984 130.518M219.782 128.072L265.035 154.979M247.912 128.072L293.165 154.979M164.745 101.165L179.422 95.0495M386.727 22.8901L376.331 43.0703M362.878 114.007L345.144 103.611L365.935 63.2505M362.878 114.007L386.727 69.9772M362.878 114.007C357.986 139.691 372.998 134.236 368.382 133.575M362.878 114.007L437.042 153.002M386.727 69.9772L365.935 63.2505M386.727 69.9772L401.404 77.6212M365.935 63.2505L376.331 43.0703M376.331 43.0703L413.634 58.3583L401.404 77.6212M401.404 77.6212L386.727 103.611L372.153 96.8841M309.064 191.058C310.532 189.591 321.906 170.063 327.41 160.482L357.374 175.77L345.144 199.008L299.891 175.77M224.674 175.77L241.797 184.332M241.797 184.332L241.797 168.432L260.142 178.828L241.797 213.073L241.797 184.332ZM241.797 184.332L227.732 204.512M290.718 186.778L272.984 221.634M272.984 221.634L299.891 235.088L290.718 207.569M272.984 221.634L265.035 230.807L299.891 250.987L313.345 221.634L290.718 207.569M272.984 221.634L290.718 207.569M272.984 221.634L260.142 216.131M290.718 207.569L269.927 194.116C245.164 186.02 232.656 173.293 202.66 196.349M122.55 199.008C132.089 207.511 138.809 211.585 156.184 216.131L144.565 230.807C141.227 236.753 138.838 239.455 111.543 216.131L122.55 199.008ZM122.55 199.008C176.168 208.547 192.178 207.24 202.66 196.349M202.66 196.349C211.465 216.577 208.775 233.457 206.329 239.368L172.695 225.303L168.414 230.807L199.602 244.261L189.818 271.167L140.284 313.362L106.651 277.894M106.651 277.894L91.9743 262.606M106.651 277.894L91.9743 294.405L75.4633 284.621L91.9743 262.606M91.9743 262.606C91.9743 262.606 90.7513 246.707 106.651 244.261C122.55 241.814 129.889 257.102 129.889 257.102C130.2 263.397 124.707 265.373 91.9743 262.606ZM75.4633 154.979L126.831 175.77L73.6287 273.002L64.4559 271.167L159.242 101.165L139.061 47.351L46.1103 92.6035L52.2255 103.611L164.745 109.726M0.857819 103.611L25.9302 132.352L43.0527 139.079L34.8991 151.309M34.8991 151.309L29.5993 159.259L17.3689 154.979L21.6495 146.417L34.8991 151.309ZM25.9302 182.497C25.9302 182.497 17.3689 188.001 17.3689 199.008C17.3689 210.015 29.5993 225.303 29.5993 225.303L21.6495 244.261C21.6495 244.261 11.8652 250.376 10.0306 239.368C8.19606 228.361 37.549 190.447 37.549 190.447M266.869 279.117L255.25 289.915M175.141 334.154L219.782 367.176L247.912 335.377L189.818 298.686L176.976 313.362L206.329 335.377L255.25 289.915M175.141 334.154L213.667 298.686L189.818 284.621L156.184 320.701L175.141 334.154ZM241.797 284.621L255.25 262.606L285.826 279.117L265.035 298.686M265.035 298.686L255.25 289.915M265.035 298.686L276.042 310.305L320.683 281.466M320.683 281.466L345.144 265.664L373.274 284.621L337.194 315.808L303.56 289.915L320.683 281.466ZM320.683 281.466L337.194 301.743L361.655 329.262L418.526 255.268L396.511 244.261L416.692 219.188M381.223 235.088L399.569 207.569L384.893 199.008L400.792 173.936" stroke="url(#paint0_linear_122_182)" stroke-opacity="0.4" stroke-width="2"/>
<defs>
<linearGradient id="paint0_linear_122_182" x1="209.692" y1="1.48694" x2="209.692" y2="367.176" gradientUnits="userSpaceOnUse">
<stop stop-color="#054ACA"/>
<stop offset="1" stop-color="#054ACA" stop-opacity="0.05"/>
</linearGradient>
</defs>
</svg>
