<svg width="492" height="394" viewBox="0 0 492 394" fill="none" xmlns="http://www.w3.org/2000/svg">
<path d="M145.681 139.548C148.432 145.913 151.643 159.044 153.432 163.229M153.432 163.229C165.44 157.266 181.075 150.059 199.903 144.8C218.731 139.542 222.646 138.081 229.647 138.285C246.248 137.447 247.53 137.743 251.164 138.142M153.432 163.229L173.381 202.696M251.164 138.142C252.993 138.004 340.283 91.0365 340.283 91.0365L408.623 53.4908L425.984 47.8091M251.164 138.142C249.101 154.067 241.434 165.705 231.211 181.74M489.711 70.6482L473.007 55.417L458.175 48.7722M362.287 135.351L372.316 118.729L401.637 112.353L441.109 141.29L408.325 198.016L379.803 247.368M362.287 135.351L348.737 139.785L295.387 157.246C291.193 158.879 270.538 170.772 262.722 173.456C254.906 176.141 251.163 178.391 230.119 184.127M362.287 135.351L318.908 211.924M230.119 184.127L173.381 202.696M230.119 184.127L231.211 181.74M173.381 202.696C179.821 205.188 207.76 221.802 207.76 221.802M173.381 202.696L109.207 320.291M207.76 221.802L231.211 181.74M207.76 221.802L232.022 235.94M287.116 268.044L348.331 301.824M287.116 268.044L318.908 211.924M287.116 268.044L255.998 321.924M287.116 268.044L247.438 244.923M348.331 301.824L379.803 247.368M348.331 301.824L435.549 349.172M348.331 301.824L316.214 356.952M318.908 211.924L379.803 247.368M379.803 247.368L440.142 278.286L435.549 349.172M435.549 349.172L391.791 401.671L316.214 356.952M316.214 356.952L255.998 321.924M316.214 356.952L286.728 415.818M255.998 321.924L215.45 301.158M255.998 321.924L231.713 380.928M215.45 301.158L247.438 244.923M215.45 301.158L204.55 295.067M247.438 244.923L232.022 235.94M232.022 235.94L204.55 295.067M204.55 295.067L176.924 351.024M176.924 351.024L231.713 380.928M176.924 351.024L109.207 320.291M231.713 380.928L286.728 415.818M286.728 415.818L302.255 423.155M109.207 320.291L81.7322 363.781L27.0364 337.066L56.0331 285.259M142.885 138.164C174.624 127.259 190.27 122.185 215.712 114.328L329.377 47.6896L396.102 3.77353L431.297 25.3718M431.297 25.3718L425.984 47.8091M431.297 25.3718L443.344 42.1273L425.984 47.8091M141.448 211.119L18.4635 223.501L3.65238 252.727L56.0331 285.259M75.4334 297.308L56.0331 285.259" stroke="url(#paint0_linear_122_181)" stroke-opacity="0.4" stroke-width="5"/>
<defs>
<linearGradient id="paint0_linear_122_181" x1="218.055" y1="62.0459" x2="335.264" y2="420.171" gradientUnits="userSpaceOnUse">
<stop stop-color="#054ACA"/>
<stop offset="1" stop-color="#054ACA" stop-opacity="0.05"/>
</linearGradient>
</defs>
</svg>
